<svg width="287" height="22" viewBox="0 0 287 22" fill="none" xmlns="http://www.w3.org/2000/svg">
<path d="M10.1037 14.6667C6.73158 14.6667 0 16.3044 0 19.5555V22H20.2074V19.5555C20.2074 16.3044 13.4758 14.6667 10.1037 14.6667Z" fill="#9D9D9D"/>
<path d="M26.6485 4.69333C26.6612 4.55888 26.6738 4.42444 26.6738 4.27777C26.6738 4.1311 26.6612 3.99666 26.6359 3.86222L27.5705 3.15333C27.6589 3.09222 27.6715 2.97 27.621 2.88444L26.7369 1.40555C26.6864 1.30778 26.5601 1.28333 26.4717 1.30778L25.3856 1.73555C25.1582 1.56444 24.9056 1.43 24.6404 1.32L24.4762 0.183333C24.451 0.0733333 24.3626 0 24.2489 0H22.4808C22.3671 0 22.2787 0.0733333 22.2661 0.183333L22.1019 1.32C21.8366 1.43 21.5841 1.57666 21.3567 1.73555L20.2579 1.30778C20.1569 1.27111 20.0432 1.30778 19.9927 1.40555L19.1086 2.88444C19.0581 2.98222 19.0708 3.09222 19.1592 3.15333L20.0938 3.86222C20.0685 3.99666 20.0559 4.14333 20.0559 4.27777C20.0559 4.41221 20.0685 4.55888 20.0938 4.69333L19.1592 5.40221C19.0708 5.46332 19.0581 5.58555 19.1086 5.6711L19.9927 7.14999C20.0432 7.24777 20.1695 7.27221 20.2579 7.24777L21.3567 6.81999C21.5841 6.9911 21.8366 7.12554 22.1019 7.23554L22.2661 8.37221C22.2787 8.48221 22.3671 8.55554 22.4808 8.55554H24.2489C24.3626 8.55554 24.451 8.48221 24.4636 8.37221L24.6278 7.23554C24.893 7.12554 25.1456 6.97888 25.3729 6.81999L26.4717 7.24777C26.5727 7.28443 26.6864 7.24777 26.7369 7.14999L27.621 5.6711C27.6715 5.57332 27.6589 5.46332 27.5705 5.40221L26.6485 4.69333ZM23.3648 5.80555C22.4934 5.80555 21.7861 5.1211 21.7861 4.27777C21.7861 3.43444 22.4934 2.75 23.3648 2.75C24.2363 2.75 24.9435 3.43444 24.9435 4.27777C24.9435 5.1211 24.2363 5.80555 23.3648 5.80555Z" fill="#9D9D9D"/>
<path d="M23.8952 10.6089L23.2637 9.54556C23.2258 9.47222 23.1374 9.44778 23.0742 9.47222L22.2912 9.77778C22.127 9.65556 21.9502 9.55778 21.7608 9.48445L21.6471 8.67778C21.6218 8.60445 21.5461 8.55556 21.4703 8.55556H20.2073C20.1315 8.55556 20.0684 8.60445 20.0558 8.69L19.9421 9.49667C19.7526 9.57 19.5758 9.68 19.4116 9.79L18.6286 9.48445C18.5528 9.46 18.4771 9.48444 18.4392 9.55778L17.8077 10.6211C17.7698 10.6944 17.7824 10.7678 17.8456 10.8167L18.5149 11.3178C18.5023 11.4156 18.4897 11.5133 18.4897 11.6111C18.4897 11.7089 18.5023 11.8189 18.5149 11.9044L17.8456 12.4056C17.7824 12.4544 17.7698 12.54 17.8077 12.6011L18.4392 13.6644C18.4771 13.7378 18.5655 13.7622 18.6286 13.7378L19.4116 13.4322C19.5758 13.5544 19.7526 13.6522 19.9421 13.7255L20.0558 14.5322C20.0684 14.6178 20.1315 14.6667 20.2073 14.6667H21.4703C21.5461 14.6667 21.6218 14.6178 21.6218 14.5322L21.7355 13.7255C21.9249 13.6522 22.1018 13.5422 22.2659 13.4322L23.049 13.7378C23.1248 13.7622 23.2005 13.7378 23.2384 13.6644L23.8699 12.6011C23.9078 12.5278 23.8952 12.4544 23.832 12.4056L23.1753 11.9044C23.1879 11.8067 23.2005 11.7089 23.2005 11.6111C23.2005 11.5133 23.1879 11.4033 23.1753 11.3178L23.8446 10.8167C23.9078 10.7678 23.9204 10.6822 23.8952 10.6089ZM20.8388 12.6256C20.2578 12.6256 19.7905 12.1611 19.7905 11.6111C19.7905 11.0489 20.2705 10.5967 20.8388 10.5967C21.4071 10.5967 21.887 11.0611 21.887 11.6111C21.887 12.1733 21.4198 12.6256 20.8388 12.6256Z" fill="#9D9D9D"/>
<path d="M4.72334 7.33332H15.4964C15.8374 7.33332 16.1153 7.06443 16.1153 6.73444V6.70999C16.1153 6.37999 15.8374 6.1111 15.4964 6.1111H15.1554C15.1554 4.30222 14.1324 2.75 12.6295 1.89444V3.05555C12.6295 3.39777 12.3516 3.66666 11.998 3.66666C11.6444 3.66666 11.3665 3.39777 11.3665 3.05555V1.39333C10.9624 1.29555 10.5456 1.22222 10.1036 1.22222C9.66152 1.22222 9.24474 1.29555 8.8406 1.39333V3.05555C8.8406 3.39777 8.56275 3.66666 8.20912 3.66666C7.85549 3.66666 7.57764 3.39777 7.57764 3.05555V1.89444C6.07471 2.75 5.05171 4.30222 5.05171 6.1111H4.72334C4.38234 6.1111 4.10449 6.37999 4.10449 6.70999V6.74666C4.10449 7.06444 4.38234 7.33332 4.72334 7.33332Z" fill="#9D9D9D"/>
<path d="M10.1038 12.2222C12.4529 12.2222 14.4105 10.6578 14.9788 8.55556H5.22876C5.79709 10.6578 7.75468 12.2222 10.1038 12.2222Z" fill="#9D9D9D"/>
<path d="M58.0347 12.1249L55.5706 14.589L62.5358 21.5542L64.9999 19.0901L58.0347 12.1249Z" fill="#9D9D9D"/>
<path d="M59.8887 8.58135C62.1306 8.58135 63.9543 6.75763 63.9543 4.51574C63.9543 3.84201 63.7685 3.21474 63.4781 2.65717L60.3417 5.7935L58.6109 4.06271L61.7473 0.92638C61.1897 0.635979 60.5624 0.450122 59.8887 0.450122C57.6468 0.450122 55.8231 2.27384 55.8231 4.51574C55.8231 4.992 55.916 5.44502 56.067 5.8632L53.9181 8.01217L51.8504 5.94451L52.6751 5.11977L51.0373 3.48191L53.4999 1.01931C52.1408 -0.339769 49.9338 -0.339769 48.5747 1.01931L44.4626 5.13139L46.1005 6.76925H42.8247L42 7.59399L46.1121 11.7061L46.9368 10.8813V7.59399L48.5747 9.23185L49.3994 8.40711L51.4671 10.4748L42.8596 19.0823L45.3222 21.5449L58.5412 8.33742C58.9594 8.48843 59.4125 8.58135 59.8887 8.58135Z" fill="#9D9D9D"/>
<path d="M99.3 11.6999C101.232 11.6999 102.786 10.1319 102.786 8.19989C101.016 8.19985 101.232 8.19985 99.3 8.19985C97.368 8.19985 98.2548 8.19985 95.8 8.19989C95.8 10.1319 97.368 11.6999 99.3 11.6999ZM88.8 10.2999C91.124 10.2999 92.986 8.42389 92.986 6.09989C91.6 6.09989 91.124 6.09991 88.8 6.09991C86.476 6.09991 86.5178 6.09989 84.6 6.09989C84.6 8.42389 86.476 10.2999 88.8 10.2999ZM99.3 14.4999C96.738 14.4999 91.6 15.7879 91.6 18.3499V21.4999H107V18.3499C107 15.7879 101.862 14.4999 99.3 14.4999ZM88.8 13.0999C85.538 13.0999 79 14.7379 79 17.9999V21.4999H88.8V18.3499C88.8 17.1599 89.262 15.0739 92.118 13.4919C90.9 13.2399 89.724 13.0999 88.8 13.0999Z" fill="#9D9D9D"/>
<path d="M84.4844 5.16023H93.1541C93.4285 5.16023 93.6521 4.95771 93.6521 4.70917V4.69075C93.6521 4.44221 93.4285 4.23969 93.1541 4.23969H92.8796C92.8796 2.87728 92.0564 1.70818 90.8469 1.0638V1.93832C90.8469 2.19607 90.6233 2.39859 90.3387 2.39859C90.0541 2.39859 89.8305 2.19607 89.8305 1.93832V0.686372C89.5053 0.612728 89.1699 0.557495 88.8141 0.557495C88.4584 0.557495 88.123 0.612728 87.7977 0.686372V1.93832C87.7977 2.19607 87.5741 2.39859 87.2896 2.39859C87.005 2.39859 86.7814 2.19607 86.7814 1.93832V1.0638C85.5719 1.70818 84.7486 2.87728 84.7486 4.23969H84.4844C84.2099 4.23969 83.9863 4.44221 83.9863 4.69075V4.71837C83.9863 4.95771 84.2099 5.16023 84.4844 5.16023Z" fill="#9D9D9D"/>
<path d="M95.8963 7.46161H102.915C103.137 7.46161 103.318 7.29959 103.318 7.10076V7.08603C103.318 6.88719 103.137 6.72517 102.915 6.72517H102.693C102.693 5.63524 102.026 4.69997 101.047 4.18446V4.88408C101.047 5.09028 100.866 5.2523 100.636 5.2523C100.405 5.2523 100.224 5.09028 100.224 4.88408V3.88252C99.9609 3.82361 99.6894 3.77942 99.4014 3.77942C99.1134 3.77942 98.8419 3.82361 98.5786 3.88252V4.88408C98.5786 5.09028 98.3976 5.2523 98.1672 5.2523C97.9368 5.2523 97.7558 5.09028 97.7558 4.88408V4.18446C96.7767 4.69997 96.1103 5.63524 96.1103 6.72517H95.8963C95.6742 6.72517 95.4932 6.88719 95.4932 7.08603V7.10812C95.4932 7.29959 95.6742 7.46161 95.8963 7.46161Z" fill="#9D9D9D"/>
<path d="M121 22H146L133.5 0L121 22ZM134.636 18.5263H132.364V16.2105H134.636V18.5263ZM134.636 13.8947H132.364V9.26316H134.636V13.8947Z" fill="#9D9D9D"/>
<path d="M167.5 4.09302C168.6 4.09302 169.5 3.17209 169.5 2.04651C169.5 0.92093 168.6 0 167.5 0C166.4 0 165.5 0.92093 165.5 2.04651C165.5 3.17209 166.4 4.09302 167.5 4.09302ZM163.75 7.57209L161 22H163.1L164.85 13.814L167 15.8605V22H169V14.2744L166.95 12.1767L167.55 9.10698C168.85 10.7442 170.8 11.7674 173 11.7674V9.72093C171.15 9.72093 169.55 8.69767 168.65 7.21395L167.7 5.57674C167.35 4.96279 166.7 4.60465 166 4.60465C165.75 4.60465 165.5 4.65581 165.25 4.75814L160 6.95814V11.7674H162V8.33953L163.75 7.57209ZM171 0.511628V7.67442H174.75V22H176.25V7.67442H180V0.511628H171ZM176.01 6.65116V4.86047H172.5V3.32558H176.01V1.53488L178.5 4.09302L176.01 6.65116Z" fill="#9D9D9D"/>
<path d="M209.723 13.8365H208.73L208.377 13.4969C209.61 12.0629 210.352 10.2013 210.352 8.1761C210.352 3.66038 206.692 0 202.176 0C197.66 0 194 3.66038 194 8.1761C194 12.6918 197.66 16.3522 202.176 16.3522C204.201 16.3522 206.063 15.6101 207.497 14.3774L207.836 14.7296V15.7233L214.126 22L216 20.1258L209.723 13.8365ZM202.176 13.8365C199.044 13.8365 196.516 11.3082 196.516 8.1761C196.516 5.04402 199.044 2.51572 202.176 2.51572C205.308 2.51572 207.836 5.04402 207.836 8.1761C207.836 11.3082 205.308 13.8365 202.176 13.8365Z" fill="#9D9D9D"/>
<rect x="230" width="22" height="22" fill="white"/>
<rect x="230" width="22" height="6.84444" fill="#9D9D9D"/>
<rect x="230" y="7.3333" width="22" height="14.6667" fill="#9D9D9D"/>
<path d="M235.629 14.2648C234.986 14.0799 234.517 13.8533 234.223 13.5851C233.931 13.3142 233.785 12.9809 233.785 12.5851C233.785 12.1372 233.963 11.7674 234.32 11.4757C234.68 11.1814 235.146 11.0343 235.719 11.0343C236.109 11.0343 236.457 11.1098 236.762 11.2609C237.069 11.4119 237.306 11.6202 237.473 11.8859C237.642 12.1515 237.726 12.4419 237.726 12.757H236.973C236.973 12.4132 236.863 12.1437 236.644 11.9484C236.426 11.7504 236.117 11.6515 235.719 11.6515C235.349 11.6515 235.06 11.7335 234.851 11.8976C234.646 12.059 234.543 12.2843 234.543 12.5734C234.543 12.8051 234.641 13.0017 234.836 13.1632C235.034 13.3221 235.368 13.4679 235.84 13.6007C236.314 13.7335 236.683 13.8807 236.949 14.0421C237.217 14.201 237.415 14.3872 237.543 14.6007C237.673 14.8142 237.738 15.0656 237.738 15.3546C237.738 15.8156 237.558 16.1853 237.199 16.464C236.84 16.74 236.359 16.8781 235.758 16.8781C235.367 16.8781 235.002 16.8038 234.664 16.6554C234.325 16.5044 234.064 16.2986 233.879 16.0382C233.697 15.7778 233.605 15.4822 233.605 15.1515H234.359C234.359 15.4952 234.486 15.7674 234.738 15.9679C234.993 16.1658 235.333 16.2648 235.758 16.2648C236.154 16.2648 236.457 16.184 236.668 16.0226C236.879 15.8611 236.984 15.6411 236.984 15.3624C236.984 15.0838 236.887 14.8689 236.691 14.7179C236.496 14.5642 236.142 14.4132 235.629 14.2648ZM242.902 16.0538C242.71 16.3299 242.44 16.5369 242.094 16.6749C241.75 16.8103 241.349 16.8781 240.891 16.8781C240.427 16.8781 240.016 16.77 239.656 16.5538C239.297 16.3351 239.018 16.0252 238.82 15.6241C238.625 15.2231 238.525 14.7583 238.519 14.2296V13.7335C238.519 12.8767 238.719 12.2127 239.117 11.7413C239.518 11.27 240.081 11.0343 240.805 11.0343C241.398 11.0343 241.876 11.1866 242.238 11.4913C242.6 11.7934 242.822 12.2231 242.902 12.7804H242.152C242.012 12.0278 241.564 11.6515 240.808 11.6515C240.306 11.6515 239.924 11.8286 239.664 12.1827C239.406 12.5343 239.276 13.0447 239.273 13.714V14.1788C239.273 14.8169 239.419 15.3247 239.711 15.7023C240.002 16.0773 240.397 16.2648 240.894 16.2648C241.176 16.2648 241.422 16.2335 241.633 16.171C241.844 16.1085 242.018 16.0031 242.156 15.8546V14.5773H240.84V13.9679H242.902V16.0538ZM248.34 14.9952C248.269 15.5968 248.047 16.0616 247.672 16.3898C247.299 16.7153 246.803 16.8781 246.183 16.8781C245.512 16.8781 244.973 16.6372 244.566 16.1554C244.163 15.6736 243.961 15.0291 243.961 14.2218V13.6749C243.961 13.1463 244.055 12.6814 244.242 12.2804C244.432 11.8794 244.7 11.5721 245.047 11.3585C245.393 11.1424 245.794 11.0343 246.25 11.0343C246.854 11.0343 247.338 11.2036 247.703 11.5421C248.068 11.8781 248.28 12.3442 248.34 12.9406H247.586C247.521 12.4874 247.379 12.1593 247.16 11.9562C246.944 11.7531 246.641 11.6515 246.25 11.6515C245.771 11.6515 245.394 11.8286 245.121 12.1827C244.85 12.5369 244.715 13.0408 244.715 13.6945V14.2452C244.715 14.8624 244.844 15.3533 245.101 15.7179C245.359 16.0825 245.72 16.2648 246.183 16.2648C246.6 16.2648 246.919 16.171 247.141 15.9835C247.364 15.7934 247.513 15.464 247.586 14.9952H248.34Z" fill="white"/>
<path d="M234.882 3.90441C234.48 3.78885 234.187 3.64725 234.003 3.47961C233.821 3.31034 233.73 3.102 233.73 2.85461C233.73 2.57466 233.841 2.34354 234.064 2.16125C234.289 1.97733 234.58 1.88537 234.938 1.88537C235.183 1.88537 235.4 1.93257 235.59 2.02697C235.782 2.12137 235.931 2.25158 236.035 2.41759C236.14 2.58361 236.193 2.76509 236.193 2.96203H235.722C235.722 2.74718 235.654 2.57873 235.517 2.45666C235.38 2.33296 235.188 2.27111 234.938 2.27111C234.707 2.27111 234.527 2.32238 234.396 2.42492C234.268 2.52583 234.204 2.66662 234.204 2.84728C234.204 2.99214 234.265 3.11502 234.387 3.21593C234.51 3.31522 234.72 3.40636 235.014 3.48937C235.31 3.57238 235.542 3.66434 235.708 3.76525C235.875 3.86454 235.999 3.98091 236.079 4.11437C236.16 4.24784 236.201 4.4049 236.201 4.58556C236.201 4.87365 236.088 5.10477 235.864 5.27892C235.639 5.45145 235.339 5.53771 234.963 5.53771C234.719 5.53771 234.491 5.49133 234.279 5.39855C234.068 5.30415 233.904 5.17557 233.789 5.01281C233.675 4.85005 233.618 4.66532 233.618 4.45861H234.089C234.089 4.67345 234.168 4.84354 234.326 4.96886C234.485 5.09256 234.698 5.15441 234.963 5.15441C235.21 5.15441 235.4 5.10396 235.532 5.00304C235.664 4.90213 235.729 4.7646 235.729 4.59045C235.729 4.41629 235.668 4.28202 235.546 4.18761C235.424 4.09159 235.203 3.99718 234.882 3.90441ZM237.307 5.48888H236.838V1.9342H237.307V5.48888ZM240.898 5.48888H240.427L238.637 2.74963V5.48888H238.166V1.9342H238.637L240.432 4.68566V1.9342H240.898V5.48888ZM244.345 4.36095C244.301 4.73693 244.162 5.02746 243.928 5.23254C243.695 5.43599 243.385 5.53771 242.998 5.53771C242.578 5.53771 242.241 5.38716 241.987 5.08605C241.735 4.78495 241.608 4.38211 241.608 3.87756V3.53576C241.608 3.20536 241.667 2.91483 241.784 2.66418C241.903 2.41353 242.071 2.22147 242.287 2.08801C242.504 1.95291 242.754 1.88537 243.039 1.88537C243.417 1.88537 243.719 1.99116 243.947 2.20275C244.175 2.41271 244.308 2.70405 244.345 3.07677H243.874C243.833 2.79357 243.745 2.58849 243.608 2.46154C243.473 2.33459 243.283 2.27111 243.039 2.27111C242.74 2.27111 242.504 2.38179 242.333 2.60314C242.164 2.8245 242.08 3.13944 242.08 3.54797V3.8922C242.08 4.27795 242.16 4.58475 242.321 4.81261C242.482 5.04048 242.708 5.15441 242.998 5.15441C243.258 5.15441 243.457 5.09582 243.596 4.97863C243.736 4.85981 243.828 4.65392 243.874 4.36095H244.345ZM247.722 3.82629C247.722 4.17459 247.663 4.47896 247.546 4.73937C247.429 4.99816 247.263 5.19592 247.048 5.33263C246.833 5.46935 246.582 5.53771 246.296 5.53771C246.016 5.53771 245.768 5.46935 245.551 5.33263C245.335 5.19429 245.166 4.99816 245.046 4.74426C244.927 4.48872 244.866 4.19331 244.863 3.85802V3.60168C244.863 3.25988 244.922 2.95796 245.041 2.69592C245.16 2.43387 245.327 2.23368 245.544 2.09533C245.762 1.95536 246.011 1.88537 246.291 1.88537C246.576 1.88537 246.826 1.95454 247.043 2.09289C247.261 2.22961 247.429 2.42899 247.546 2.69103C247.663 2.95145 247.722 3.255 247.722 3.60168V3.82629ZM247.255 3.59679C247.255 3.17524 247.171 2.85217 247.001 2.62756C246.832 2.40132 246.595 2.2882 246.291 2.2882C245.995 2.2882 245.761 2.40132 245.59 2.62756C245.421 2.85217 245.334 3.16467 245.329 3.56506V3.82629C245.329 4.23481 245.415 4.55627 245.585 4.79064C245.758 5.02339 245.995 5.13976 246.296 5.13976C246.599 5.13976 246.833 5.0299 246.999 4.81017C247.165 4.58882 247.25 4.27225 247.255 3.86047V3.59679Z" fill="white"/>
<path d="M284.528 12.0771C284.573 11.7333 284.596 11.3781 284.596 11C284.596 10.6333 284.573 10.2667 284.517 9.92292L286.8 8.1125C287.002 7.95208 287.058 7.64271 286.935 7.41354L284.776 3.60937C284.641 3.35729 284.36 3.27708 284.112 3.35729L281.425 4.45729C280.863 4.02187 280.267 3.65521 279.603 3.38021L279.199 0.469791C279.154 0.194791 278.929 0 278.659 0H274.341C274.071 0 273.858 0.194791 273.813 0.469791L273.408 3.38021C272.744 3.65521 272.137 4.03333 271.586 4.45729L268.899 3.35729C268.651 3.26562 268.37 3.35729 268.235 3.60937L266.088 7.41354C265.953 7.65417 265.998 7.95208 266.223 8.1125L268.505 9.92292C268.449 10.2667 268.404 10.6448 268.404 11C268.404 11.3552 268.427 11.7333 268.483 12.0771L266.2 13.8875C265.998 14.0479 265.942 14.3573 266.065 14.5865L268.224 18.3906C268.359 18.6427 268.64 18.7229 268.888 18.6427L271.575 17.5427C272.137 17.9781 272.733 18.3448 273.397 18.6198L273.801 21.5302C273.858 21.8052 274.071 22 274.341 22H278.659C278.929 22 279.154 21.8052 279.187 21.5302L279.592 18.6198C280.256 18.3448 280.863 17.9781 281.414 17.5427L284.101 18.6427C284.349 18.7344 284.63 18.6427 284.765 18.3906L286.924 14.5865C287.058 14.3344 287.002 14.0479 286.789 13.8875L284.528 12.0771ZM276.5 15.125C274.274 15.125 272.452 13.2687 272.452 11C272.452 8.73125 274.274 6.875 276.5 6.875C278.726 6.875 280.548 8.73125 280.548 11C280.548 13.2687 278.726 15.125 276.5 15.125Z" fill="#9D9D9D"/>
</svg>
