<svg width="67" height="21" viewBox="0 0 67 21" fill="none" xmlns="http://www.w3.org/2000/svg">
<rect width="67" height="21" rx="2" fill="#5B7288"/>
<path d="M35.4819 13.2021C35.4819 12.7871 35.3354 12.4697 35.0425 12.25C34.7495 12.0254 34.2222 11.791 33.4604 11.5469C32.6987 11.2979 32.0957 11.0537 31.6514 10.8145C30.4404 10.1602 29.835 9.27881 29.835 8.17041C29.835 7.59424 29.9961 7.08154 30.3184 6.63232C30.6455 6.17822 31.1118 5.82422 31.7173 5.57031C32.3276 5.31641 33.0112 5.18945 33.7681 5.18945C34.5298 5.18945 35.2085 5.32861 35.8042 5.60693C36.3999 5.88037 36.8613 6.26855 37.1885 6.77148C37.5205 7.27441 37.6865 7.8457 37.6865 8.48535H35.4893C35.4893 7.99707 35.3354 7.61865 35.0278 7.3501C34.7202 7.07666 34.2881 6.93994 33.7314 6.93994C33.1943 6.93994 32.7769 7.05469 32.479 7.28418C32.1812 7.50879 32.0322 7.80664 32.0322 8.17773C32.0322 8.52441 32.2056 8.81494 32.5522 9.04932C32.9038 9.28369 33.4189 9.50342 34.0977 9.7085C35.3477 10.0845 36.2583 10.5508 36.8296 11.1074C37.4009 11.6641 37.6865 12.3574 37.6865 13.1875C37.6865 14.1104 37.3374 14.8354 36.6392 15.3628C35.9409 15.8853 35.001 16.1465 33.8193 16.1465C32.999 16.1465 32.252 15.9976 31.5781 15.6997C30.9043 15.397 30.3892 14.9844 30.0327 14.4619C29.6812 13.9395 29.5054 13.334 29.5054 12.6455H31.71C31.71 13.8223 32.4131 14.4106 33.8193 14.4106C34.3418 14.4106 34.7495 14.3057 35.0425 14.0957C35.3354 13.8809 35.4819 13.583 35.4819 13.2021ZM43.6338 16C43.5361 15.8096 43.4653 15.5728 43.4214 15.2896C42.9087 15.8608 42.2422 16.1465 41.4219 16.1465C40.6455 16.1465 40.001 15.9219 39.4883 15.4727C38.9805 15.0234 38.7266 14.457 38.7266 13.7734C38.7266 12.9336 39.0366 12.2891 39.6567 11.8398C40.2817 11.3906 41.1826 11.1636 42.3594 11.1587H43.3335V10.7046C43.3335 10.3384 43.2383 10.0454 43.0479 9.82568C42.8623 9.60596 42.5669 9.49609 42.1616 9.49609C41.8052 9.49609 41.5244 9.58154 41.3193 9.75244C41.1191 9.92334 41.019 10.1577 41.019 10.4556H38.9023C38.9023 9.99658 39.0439 9.57178 39.3271 9.18115C39.6104 8.79053 40.0107 8.48535 40.5283 8.26562C41.0459 8.04102 41.627 7.92871 42.2715 7.92871C43.248 7.92871 44.022 8.17529 44.5933 8.66846C45.1694 9.15674 45.4575 9.84521 45.4575 10.7339V14.1689C45.4624 14.9209 45.5674 15.4897 45.7725 15.8755V16H43.6338ZM41.8833 14.5278C42.1958 14.5278 42.4839 14.4595 42.7476 14.3228C43.0112 14.1812 43.2065 13.9932 43.3335 13.7588V12.3965H42.5425C41.4829 12.3965 40.9189 12.7627 40.8506 13.4951L40.8433 13.6196C40.8433 13.8833 40.936 14.1006 41.1216 14.2715C41.3071 14.4424 41.561 14.5278 41.8833 14.5278ZM49.3174 16H47.1934V4.75H49.3174V16ZM53.3018 16H51.1777V8.0752H53.3018V16ZM51.0532 6.02441C51.0532 5.70703 51.1582 5.4458 51.3682 5.24072C51.583 5.03564 51.8735 4.93311 52.2397 4.93311C52.6011 4.93311 52.8892 5.03564 53.104 5.24072C53.3188 5.4458 53.4263 5.70703 53.4263 6.02441C53.4263 6.34668 53.3164 6.61035 53.0967 6.81543C52.8818 7.02051 52.5962 7.12305 52.2397 7.12305C51.8833 7.12305 51.5952 7.02051 51.3755 6.81543C51.1606 6.61035 51.0532 6.34668 51.0532 6.02441ZM59.5054 10.0601C59.2173 10.021 58.9634 10.0015 58.7437 10.0015C57.9429 10.0015 57.418 10.2725 57.1689 10.8145V16H55.0522V8.0752H57.0518L57.1104 9.02002C57.5352 8.29248 58.1235 7.92871 58.8755 7.92871C59.1099 7.92871 59.3296 7.96045 59.5347 8.02393L59.5054 10.0601Z" fill="white"/>
<path d="M20.5 9.625H9.85125L14.7425 4.73375L13.5 3.5L6.5 10.5L13.5 17.5L14.7337 16.2662L9.85125 11.375H20.5V9.625Z" fill="white"/>
</svg>
