<svg width="168" height="38" viewBox="0 0 168 38" fill="none" xmlns="http://www.w3.org/2000/svg">
<path d="M157.041 32.2978L140.588 22.5257L150.619 14.2715L157.041 32.2978Z" fill="#282828"/>
<rect width="168" height="24" rx="2" fill="#282828"/>
<path d="M10.6484 14.5352H8.08008L7.5918 16H6.03418L8.68066 8.89062H10.0381L12.6992 16H11.1416L10.6484 14.5352ZM8.47559 13.3486H10.2529L9.35938 10.6875L8.47559 13.3486ZM16.1318 14.54C16.1318 14.3675 16.0456 14.2324 15.873 14.1348C15.7038 14.0339 15.4303 13.9443 15.0527 13.8662C13.7962 13.6025 13.168 13.0687 13.168 12.2646C13.168 11.7959 13.3617 11.4053 13.749 11.0928C14.1396 10.777 14.6491 10.6191 15.2773 10.6191C15.9479 10.6191 16.4834 10.777 16.8838 11.0928C17.2874 11.4085 17.4893 11.8187 17.4893 12.3232H16.0781C16.0781 12.1214 16.013 11.9554 15.8828 11.8252C15.7526 11.6917 15.5492 11.625 15.2725 11.625C15.0348 11.625 14.8509 11.6787 14.7207 11.7861C14.5905 11.8936 14.5254 12.0303 14.5254 12.1963C14.5254 12.3525 14.5986 12.4795 14.7451 12.5771C14.8949 12.6715 15.1455 12.7546 15.4971 12.8262C15.8486 12.8945 16.1449 12.9727 16.3857 13.0605C17.1312 13.334 17.5039 13.8076 17.5039 14.4814C17.5039 14.9632 17.2972 15.3538 16.8838 15.6533C16.4704 15.9495 15.9365 16.0977 15.2822 16.0977C14.8395 16.0977 14.4456 16.0195 14.1006 15.8633C13.7588 15.7038 13.4902 15.4873 13.2949 15.2139C13.0996 14.9372 13.002 14.6393 13.002 14.3203H14.3398C14.3529 14.571 14.4456 14.763 14.6182 14.8965C14.7907 15.0299 15.0218 15.0967 15.3115 15.0967C15.5817 15.0967 15.7852 15.0462 15.9219 14.9453C16.0618 14.8411 16.1318 14.7061 16.1318 14.54ZM19.9062 16H18.4902V10.7168H19.9062V16ZM18.4072 9.34961C18.4072 9.13802 18.4772 8.96387 18.6172 8.82715C18.7604 8.69043 18.9541 8.62207 19.1982 8.62207C19.4391 8.62207 19.6312 8.69043 19.7744 8.82715C19.9176 8.96387 19.9893 9.13802 19.9893 9.34961C19.9893 9.56445 19.916 9.74023 19.7695 9.87695C19.6263 10.0137 19.4359 10.082 19.1982 10.082C18.9606 10.082 18.7686 10.0137 18.6221 9.87695C18.4788 9.74023 18.4072 9.56445 18.4072 9.34961ZM20.8682 13.3193C20.8682 12.5088 21.0602 11.8561 21.4443 11.3613C21.8317 10.8665 22.3525 10.6191 23.0068 10.6191C23.5863 10.6191 24.0371 10.8177 24.3594 11.2148L24.418 10.7168H25.6973V15.8242C25.6973 16.2865 25.5915 16.6885 25.3799 17.0303C25.1715 17.3721 24.877 17.6325 24.4961 17.8115C24.1152 17.9906 23.6693 18.0801 23.1582 18.0801C22.7708 18.0801 22.3932 18.002 22.0254 17.8457C21.6576 17.6927 21.3792 17.4941 21.1904 17.25L21.8154 16.3906C22.167 16.7845 22.5934 16.9814 23.0947 16.9814C23.4691 16.9814 23.7604 16.8805 23.9688 16.6787C24.1771 16.4801 24.2812 16.1969 24.2812 15.8291V15.5459C23.9557 15.9137 23.5277 16.0977 22.9971 16.0977C22.3623 16.0977 21.848 15.8503 21.4541 15.3555C21.0635 14.8574 20.8682 14.1982 20.8682 13.3779V13.3193ZM22.2793 13.4219C22.2793 13.9004 22.3753 14.2764 22.5674 14.5498C22.7594 14.82 23.0231 14.9551 23.3584 14.9551C23.7881 14.9551 24.0957 14.7939 24.2812 14.4717V12.25C24.0924 11.9277 23.7881 11.7666 23.3682 11.7666C23.0296 11.7666 22.7627 11.9049 22.5674 12.1816C22.3753 12.4583 22.2793 12.8717 22.2793 13.4219ZM28.085 10.7168L28.1289 11.3271C28.5065 10.8551 29.0127 10.6191 29.6475 10.6191C30.2074 10.6191 30.624 10.7835 30.8975 11.1123C31.1709 11.4411 31.3109 11.9326 31.3174 12.5869V16H29.9062V12.6211C29.9062 12.3216 29.8411 12.1051 29.7109 11.9717C29.5807 11.835 29.3643 11.7666 29.0615 11.7666C28.6644 11.7666 28.3665 11.9359 28.168 12.2744V16H26.7568V10.7168H28.085ZM35.4531 16C35.388 15.873 35.3408 15.7152 35.3115 15.5264C34.9697 15.9072 34.5254 16.0977 33.9785 16.0977C33.4609 16.0977 33.0312 15.9479 32.6895 15.6484C32.3509 15.349 32.1816 14.9714 32.1816 14.5156C32.1816 13.9557 32.3883 13.526 32.8018 13.2266C33.2184 12.9271 33.819 12.7757 34.6035 12.7725H35.2529V12.4697C35.2529 12.2256 35.1895 12.0303 35.0625 11.8838C34.9388 11.7373 34.7419 11.6641 34.4717 11.6641C34.234 11.6641 34.0469 11.721 33.9102 11.835C33.7767 11.9489 33.71 12.1051 33.71 12.3037H32.2988C32.2988 11.9977 32.3932 11.7145 32.582 11.4541C32.7708 11.1937 33.0378 10.9902 33.3828 10.8438C33.7279 10.694 34.1152 10.6191 34.5449 10.6191C35.196 10.6191 35.7119 10.7835 36.0928 11.1123C36.4769 11.4378 36.6689 11.8968 36.6689 12.4893V14.7793C36.6722 15.2806 36.7422 15.6598 36.8789 15.917V16H35.4531ZM34.2861 15.0186C34.4945 15.0186 34.6865 14.973 34.8623 14.8818C35.0381 14.7874 35.1683 14.6621 35.2529 14.5059V13.5977H34.7256C34.0192 13.5977 33.6432 13.8418 33.5977 14.3301L33.5928 14.4131C33.5928 14.5889 33.6546 14.7337 33.7783 14.8477C33.902 14.9616 34.0713 15.0186 34.2861 15.0186ZM40.7217 12.04C40.5296 12.014 40.3604 12.001 40.2139 12.001C39.68 12.001 39.3301 12.1816 39.1641 12.543V16H37.7529V10.7168H39.0859L39.125 11.3467C39.4082 10.8617 39.8005 10.6191 40.3018 10.6191C40.458 10.6191 40.6045 10.6403 40.7412 10.6826L40.7217 12.04ZM45.1943 10.7168L45.2383 11.3271C45.6159 10.8551 46.1221 10.6191 46.7568 10.6191C47.3167 10.6191 47.7334 10.7835 48.0068 11.1123C48.2803 11.4411 48.4202 11.9326 48.4268 12.5869V16H47.0156V12.6211C47.0156 12.3216 46.9505 12.1051 46.8203 11.9717C46.6901 11.835 46.4736 11.7666 46.1709 11.7666C45.7738 11.7666 45.4759 11.9359 45.2773 12.2744V16H43.8662V10.7168H45.1943ZM52.665 15.4629C52.3167 15.8861 51.835 16.0977 51.2197 16.0977C50.6533 16.0977 50.2204 15.9349 49.9209 15.6094C49.6247 15.2839 49.4733 14.807 49.4668 14.1787V10.7168H50.8779V14.1299C50.8779 14.68 51.1286 14.9551 51.6299 14.9551C52.1084 14.9551 52.4372 14.7891 52.6162 14.457V10.7168H54.0322V16H52.7041L52.665 15.4629ZM57.5283 16.0977C56.7536 16.0977 56.1221 15.86 55.6338 15.3848C55.1488 14.9095 54.9062 14.2764 54.9062 13.4854V13.3486C54.9062 12.818 55.0088 12.3444 55.2139 11.9277C55.4189 11.5078 55.7087 11.1855 56.083 10.9609C56.4606 10.7331 56.8903 10.6191 57.3721 10.6191C58.0947 10.6191 58.6628 10.847 59.0762 11.3027C59.4928 11.7585 59.7012 12.4046 59.7012 13.2412V13.8174H56.3369C56.3825 14.1624 56.5192 14.4391 56.7471 14.6475C56.9782 14.8558 57.2695 14.96 57.6211 14.96C58.1647 14.96 58.5895 14.763 58.8955 14.3691L59.5889 15.1455C59.3773 15.445 59.0908 15.6794 58.7295 15.8486C58.3682 16.0146 57.9678 16.0977 57.5283 16.0977ZM57.3672 11.7617C57.0872 11.7617 56.8594 11.8561 56.6836 12.0449C56.5111 12.2337 56.4004 12.5039 56.3516 12.8555H58.3145V12.7432C58.3079 12.4307 58.2233 12.1898 58.0605 12.0205C57.8978 11.848 57.6667 11.7617 57.3672 11.7617ZM62.416 14.2764L63.3975 10.7168H64.8721L63.0898 16H61.7422L59.96 10.7168H61.4346L62.416 14.2764ZM65.1992 13.3096C65.1992 12.7855 65.3001 12.3184 65.502 11.9082C65.7038 11.498 65.9935 11.1807 66.3711 10.9561C66.752 10.7314 67.193 10.6191 67.6943 10.6191C68.4072 10.6191 68.9883 10.8372 69.4375 11.2734C69.89 11.7096 70.1423 12.3021 70.1943 13.0508L70.2041 13.4121C70.2041 14.2227 69.9779 14.8737 69.5254 15.3652C69.0729 15.8535 68.4658 16.0977 67.7041 16.0977C66.9424 16.0977 66.3337 15.8535 65.8779 15.3652C65.4255 14.877 65.1992 14.2129 65.1992 13.373V13.3096ZM66.6104 13.4121C66.6104 13.9134 66.7048 14.2975 66.8936 14.5645C67.0824 14.8281 67.3525 14.96 67.7041 14.96C68.0459 14.96 68.3128 14.8298 68.5049 14.5693C68.6969 14.3057 68.793 13.8857 68.793 13.3096C68.793 12.818 68.6969 12.4372 68.5049 12.167C68.3128 11.8968 68.0426 11.7617 67.6943 11.7617C67.3493 11.7617 67.0824 11.8968 66.8936 12.167C66.7048 12.4339 66.6104 12.849 66.6104 13.4121ZM75.9951 16.0977C75.2204 16.0977 74.5889 15.86 74.1006 15.3848C73.6156 14.9095 73.373 14.2764 73.373 13.4854V13.3486C73.373 12.818 73.4756 12.3444 73.6807 11.9277C73.8857 11.5078 74.1755 11.1855 74.5498 10.9609C74.9274 10.7331 75.3571 10.6191 75.8389 10.6191C76.5615 10.6191 77.1296 10.847 77.543 11.3027C77.9596 11.7585 78.168 12.4046 78.168 13.2412V13.8174H74.8037C74.8493 14.1624 74.986 14.4391 75.2139 14.6475C75.445 14.8558 75.7363 14.96 76.0879 14.96C76.6315 14.96 77.0563 14.763 77.3623 14.3691L78.0557 15.1455C77.8441 15.445 77.5576 15.6794 77.1963 15.8486C76.835 16.0146 76.4346 16.0977 75.9951 16.0977ZM75.834 11.7617C75.554 11.7617 75.3262 11.8561 75.1504 12.0449C74.9779 12.2337 74.8672 12.5039 74.8184 12.8555H76.7812V12.7432C76.7747 12.4307 76.6901 12.1898 76.5273 12.0205C76.3646 11.848 76.1335 11.7617 75.834 11.7617ZM80.4629 16H79.0469V8.5H80.4629V16ZM84.0615 16.0977C83.2868 16.0977 82.6553 15.86 82.167 15.3848C81.682 14.9095 81.4395 14.2764 81.4395 13.4854V13.3486C81.4395 12.818 81.542 12.3444 81.7471 11.9277C81.9521 11.5078 82.2419 11.1855 82.6162 10.9609C82.9938 10.7331 83.4235 10.6191 83.9053 10.6191C84.6279 10.6191 85.196 10.847 85.6094 11.3027C86.026 11.7585 86.2344 12.4046 86.2344 13.2412V13.8174H82.8701C82.9157 14.1624 83.0524 14.4391 83.2803 14.6475C83.5114 14.8558 83.8027 14.96 84.1543 14.96C84.6979 14.96 85.1227 14.763 85.4287 14.3691L86.1221 15.1455C85.9105 15.445 85.624 15.6794 85.2627 15.8486C84.9014 16.0146 84.501 16.0977 84.0615 16.0977ZM83.9004 11.7617C83.6204 11.7617 83.3926 11.8561 83.2168 12.0449C83.0443 12.2337 82.9336 12.5039 82.8848 12.8555H84.8477V12.7432C84.8411 12.4307 84.7565 12.1898 84.5938 12.0205C84.431 11.848 84.1999 11.7617 83.9004 11.7617ZM88.3633 10.7168L88.4072 11.3076C88.7816 10.8486 89.2878 10.6191 89.9258 10.6191C90.6061 10.6191 91.0732 10.8877 91.3271 11.4248C91.6982 10.8877 92.2272 10.6191 92.9141 10.6191C93.487 10.6191 93.9134 10.7868 94.1934 11.1221C94.4733 11.4541 94.6133 11.9554 94.6133 12.626V16H93.1973V12.6309C93.1973 12.3314 93.1387 12.1133 93.0215 11.9766C92.9043 11.8366 92.6976 11.7666 92.4014 11.7666C91.9782 11.7666 91.6852 11.9684 91.5225 12.3721L91.5273 16H90.1162V12.6357C90.1162 12.3298 90.056 12.1084 89.9355 11.9717C89.8151 11.835 89.61 11.7666 89.3203 11.7666C88.9199 11.7666 88.6302 11.9326 88.4512 12.2646V16H87.04V10.7168H88.3633ZM98.1338 16.0977C97.359 16.0977 96.7275 15.86 96.2393 15.3848C95.7542 14.9095 95.5117 14.2764 95.5117 13.4854V13.3486C95.5117 12.818 95.6143 12.3444 95.8193 11.9277C96.0244 11.5078 96.3141 11.1855 96.6885 10.9609C97.0661 10.7331 97.4958 10.6191 97.9775 10.6191C98.7002 10.6191 99.2682 10.847 99.6816 11.3027C100.098 11.7585 100.307 12.4046 100.307 13.2412V13.8174H96.9424C96.988 14.1624 97.1247 14.4391 97.3525 14.6475C97.5837 14.8558 97.875 14.96 98.2266 14.96C98.7702 14.96 99.195 14.763 99.501 14.3691L100.194 15.1455C99.9827 15.445 99.6963 15.6794 99.335 15.8486C98.9736 16.0146 98.5732 16.0977 98.1338 16.0977ZM97.9727 11.7617C97.6927 11.7617 97.4648 11.8561 97.2891 12.0449C97.1165 12.2337 97.0059 12.5039 96.957 12.8555H98.9199V12.7432C98.9134 12.4307 98.8288 12.1898 98.666 12.0205C98.5033 11.848 98.2721 11.7617 97.9727 11.7617ZM102.411 10.7168L102.455 11.3271C102.833 10.8551 103.339 10.6191 103.974 10.6191C104.534 10.6191 104.95 10.7835 105.224 11.1123C105.497 11.4411 105.637 11.9326 105.644 12.5869V16H104.232V12.6211C104.232 12.3216 104.167 12.1051 104.037 11.9717C103.907 11.835 103.69 11.7666 103.388 11.7666C102.991 11.7666 102.693 11.9359 102.494 12.2744V16H101.083V10.7168H102.411ZM108.407 9.41797V10.7168H109.311V11.752H108.407V14.3887C108.407 14.584 108.445 14.724 108.52 14.8086C108.594 14.8932 108.738 14.9355 108.949 14.9355C109.105 14.9355 109.244 14.9242 109.364 14.9014V15.9707C109.088 16.0553 108.803 16.0977 108.51 16.0977C107.52 16.0977 107.016 15.598 106.996 14.5986V11.752H106.225V10.7168H106.996V9.41797H108.407ZM109.73 13.3096C109.73 12.7855 109.831 12.3184 110.033 11.9082C110.235 11.498 110.525 11.1807 110.902 10.9561C111.283 10.7314 111.724 10.6191 112.226 10.6191C112.938 10.6191 113.52 10.8372 113.969 11.2734C114.421 11.7096 114.674 12.3021 114.726 13.0508L114.735 13.4121C114.735 14.2227 114.509 14.8737 114.057 15.3652C113.604 15.8535 112.997 16.0977 112.235 16.0977C111.474 16.0977 110.865 15.8535 110.409 15.3652C109.957 14.877 109.73 14.2129 109.73 13.373V13.3096ZM111.142 13.4121C111.142 13.9134 111.236 14.2975 111.425 14.5645C111.614 14.8281 111.884 14.96 112.235 14.96C112.577 14.96 112.844 14.8298 113.036 14.5693C113.228 14.3057 113.324 13.8857 113.324 13.3096C113.324 12.818 113.228 12.4372 113.036 12.167C112.844 11.8968 112.574 11.7617 112.226 11.7617C111.881 11.7617 111.614 11.8968 111.425 12.167C111.236 12.4339 111.142 12.849 111.142 13.4121ZM117.875 13.3193C117.875 12.4958 118.059 11.8398 118.427 11.3516C118.798 10.8633 119.304 10.6191 119.945 10.6191C120.46 10.6191 120.884 10.8112 121.22 11.1953V8.5H122.636V16H121.361L121.293 15.4385C120.941 15.8779 120.489 16.0977 119.936 16.0977C119.314 16.0977 118.814 15.8535 118.437 15.3652C118.062 14.8737 117.875 14.1917 117.875 13.3193ZM119.286 13.4219C119.286 13.9167 119.372 14.2959 119.545 14.5596C119.717 14.8232 119.968 14.9551 120.297 14.9551C120.733 14.9551 121.041 14.7712 121.22 14.4033V12.3184C121.044 11.9505 120.74 11.7666 120.307 11.7666C119.626 11.7666 119.286 12.3184 119.286 13.4219ZM126.161 16.0977C125.386 16.0977 124.755 15.86 124.267 15.3848C123.782 14.9095 123.539 14.2764 123.539 13.4854V13.3486C123.539 12.818 123.642 12.3444 123.847 11.9277C124.052 11.5078 124.341 11.1855 124.716 10.9609C125.093 10.7331 125.523 10.6191 126.005 10.6191C126.728 10.6191 127.296 10.847 127.709 11.3027C128.126 11.7585 128.334 12.4046 128.334 13.2412V13.8174H124.97C125.015 14.1624 125.152 14.4391 125.38 14.6475C125.611 14.8558 125.902 14.96 126.254 14.96C126.798 14.96 127.222 14.763 127.528 14.3691L128.222 15.1455C128.01 15.445 127.724 15.6794 127.362 15.8486C127.001 16.0146 126.601 16.0977 126.161 16.0977ZM126 11.7617C125.72 11.7617 125.492 11.8561 125.316 12.0449C125.144 12.2337 125.033 12.5039 124.984 12.8555H126.947V12.7432C126.941 12.4307 126.856 12.1898 126.693 12.0205C126.531 11.848 126.299 11.7617 126 11.7617ZM133.319 9.41797V10.7168H134.223V11.752H133.319V14.3887C133.319 14.584 133.357 14.724 133.432 14.8086C133.507 14.8932 133.65 14.9355 133.861 14.9355C134.018 14.9355 134.156 14.9242 134.276 14.9014V15.9707C134 16.0553 133.715 16.0977 133.422 16.0977C132.432 16.0977 131.928 15.598 131.908 14.5986V11.752H131.137V10.7168H131.908V9.41797H133.319ZM137.978 12.04C137.785 12.014 137.616 12.001 137.47 12.001C136.936 12.001 136.586 12.1816 136.42 12.543V16H135.009V10.7168H136.342L136.381 11.3467C136.664 10.8617 137.056 10.6191 137.558 10.6191C137.714 10.6191 137.86 10.6403 137.997 10.6826L137.978 12.04ZM141.576 16C141.511 15.873 141.464 15.7152 141.435 15.5264C141.093 15.9072 140.648 16.0977 140.102 16.0977C139.584 16.0977 139.154 15.9479 138.812 15.6484C138.474 15.349 138.305 14.9714 138.305 14.5156C138.305 13.9557 138.511 13.526 138.925 13.2266C139.341 12.9271 139.942 12.7757 140.727 12.7725H141.376V12.4697C141.376 12.2256 141.312 12.0303 141.186 11.8838C141.062 11.7373 140.865 11.6641 140.595 11.6641C140.357 11.6641 140.17 11.721 140.033 11.835C139.9 11.9489 139.833 12.1051 139.833 12.3037H138.422C138.422 11.9977 138.516 11.7145 138.705 11.4541C138.894 11.1937 139.161 10.9902 139.506 10.8438C139.851 10.694 140.238 10.6191 140.668 10.6191C141.319 10.6191 141.835 10.7835 142.216 11.1123C142.6 11.4378 142.792 11.8968 142.792 12.4893V14.7793C142.795 15.2806 142.865 15.6598 143.002 15.917V16H141.576ZM140.409 15.0186C140.618 15.0186 140.81 14.973 140.985 14.8818C141.161 14.7874 141.291 14.6621 141.376 14.5059V13.5977H140.849C140.142 13.5977 139.766 13.8418 139.721 14.3301L139.716 14.4131C139.716 14.5889 139.778 14.7337 139.901 14.8477C140.025 14.9616 140.194 15.0186 140.409 15.0186ZM148.637 13.4072C148.637 14.2536 148.456 14.9144 148.095 15.3896C147.733 15.8617 147.229 16.0977 146.581 16.0977C146.008 16.0977 145.551 15.8779 145.209 15.4385L145.146 16H143.876V8.5H145.287V11.1904C145.613 10.8096 146.041 10.6191 146.571 10.6191C147.216 10.6191 147.72 10.8568 148.085 11.332C148.453 11.804 148.637 12.4697 148.637 13.3291V13.4072ZM147.226 13.3047C147.226 12.7708 147.141 12.3818 146.972 12.1377C146.802 11.8903 146.55 11.7666 146.215 11.7666C145.766 11.7666 145.456 11.9505 145.287 12.3184V14.4033C145.46 14.7744 145.772 14.96 146.225 14.96C146.68 14.96 146.98 14.7354 147.123 14.2861C147.191 14.0713 147.226 13.7441 147.226 13.3047ZM152.572 16C152.507 15.873 152.46 15.7152 152.431 15.5264C152.089 15.9072 151.645 16.0977 151.098 16.0977C150.58 16.0977 150.15 15.9479 149.809 15.6484C149.47 15.349 149.301 14.9714 149.301 14.5156C149.301 13.9557 149.507 13.526 149.921 13.2266C150.338 12.9271 150.938 12.7757 151.723 12.7725H152.372V12.4697C152.372 12.2256 152.309 12.0303 152.182 11.8838C152.058 11.7373 151.861 11.6641 151.591 11.6641C151.353 11.6641 151.166 11.721 151.029 11.835C150.896 11.9489 150.829 12.1051 150.829 12.3037H149.418C149.418 11.9977 149.512 11.7145 149.701 11.4541C149.89 11.1937 150.157 10.9902 150.502 10.8438C150.847 10.694 151.234 10.6191 151.664 10.6191C152.315 10.6191 152.831 10.7835 153.212 11.1123C153.596 11.4378 153.788 11.8968 153.788 12.4893V14.7793C153.791 15.2806 153.861 15.6598 153.998 15.917V16H152.572ZM151.405 15.0186C151.614 15.0186 151.806 14.973 151.981 14.8818C152.157 14.7874 152.287 14.6621 152.372 14.5059V13.5977H151.845C151.138 13.5977 150.762 13.8418 150.717 14.3301L150.712 14.4131C150.712 14.5889 150.774 14.7337 150.897 14.8477C151.021 14.9616 151.19 15.0186 151.405 15.0186ZM156.366 10.7168V16.2881C156.366 16.8708 156.212 17.3232 155.902 17.6455C155.593 17.971 155.147 18.1338 154.564 18.1338C154.32 18.1338 154.088 18.1061 153.866 18.0508V16.9326C154.035 16.9619 154.184 16.9766 154.311 16.9766C154.737 16.9766 154.95 16.7503 154.95 16.2979V10.7168H156.366ZM154.838 9.34961C154.838 9.13802 154.908 8.96387 155.048 8.82715C155.191 8.69043 155.385 8.62207 155.629 8.62207C155.873 8.62207 156.065 8.69043 156.205 8.82715C156.348 8.96387 156.42 9.13802 156.42 9.34961C156.42 9.56445 156.347 9.74023 156.2 9.87695C156.057 10.0137 155.867 10.082 155.629 10.082C155.391 10.082 155.199 10.0137 155.053 9.87695C154.91 9.74023 154.838 9.56445 154.838 9.34961ZM157.25 13.3096C157.25 12.7855 157.351 12.3184 157.553 11.9082C157.755 11.498 158.044 11.1807 158.422 10.9561C158.803 10.7314 159.244 10.6191 159.745 10.6191C160.458 10.6191 161.039 10.8372 161.488 11.2734C161.941 11.7096 162.193 12.3021 162.245 13.0508L162.255 13.4121C162.255 14.2227 162.029 14.8737 161.576 15.3652C161.124 15.8535 160.517 16.0977 159.755 16.0977C158.993 16.0977 158.384 15.8535 157.929 15.3652C157.476 14.877 157.25 14.2129 157.25 13.373V13.3096ZM158.661 13.4121C158.661 13.9134 158.756 14.2975 158.944 14.5645C159.133 14.8281 159.403 14.96 159.755 14.96C160.097 14.96 160.364 14.8298 160.556 14.5693C160.748 14.3057 160.844 13.8857 160.844 13.3096C160.844 12.818 160.748 12.4372 160.556 12.167C160.364 11.8968 160.093 11.7617 159.745 11.7617C159.4 11.7617 159.133 11.8968 158.944 12.167C158.756 12.4339 158.661 12.849 158.661 13.4121Z" fill="white"/>
</svg>
