<svg width="67" height="66" viewBox="0 0 67 66" fill="none" xmlns="http://www.w3.org/2000/svg">
<path d="M47.9003 0.794434H19.9875C17.7944 0.794434 16 2.58883 16 4.78197V32.6947C16 34.8879 17.7944 36.6823 19.9875 36.6823H47.9003C50.0935 36.6823 51.8879 34.8879 51.8879 32.6947V4.78197C51.8879 2.58883 50.0935 0.794434 47.9003 0.794434ZM37.9315 28.7072H23.9751V24.7197H37.9315V28.7072ZM43.9128 20.7321H23.9751V16.7446H43.9128V20.7321ZM43.9128 12.7571H23.9751V8.76951H43.9128V12.7571Z" fill="#36A792"/>
<path d="M15.1309 48V41.6016H17.0996C17.6621 41.6016 18.1646 41.729 18.6069 41.9839C19.0522 42.2358 19.3994 42.5962 19.6484 43.0649C19.8975 43.5308 20.022 44.061 20.022 44.6558V44.9502C20.022 45.5449 19.8989 46.0737 19.6528 46.5366C19.4097 46.9995 19.0654 47.3584 18.6201 47.6133C18.1748 47.8682 17.6724 47.9971 17.1128 48H15.1309ZM16.4492 42.6694V46.9409H17.0864C17.6021 46.9409 17.9961 46.7725 18.2686 46.4355C18.541 46.0986 18.6802 45.6167 18.686 44.9897V44.6514C18.686 44.001 18.5513 43.5088 18.2817 43.1748C18.0122 42.8379 17.6182 42.6694 17.0996 42.6694H16.4492ZM23.6562 48C23.5977 47.8857 23.5552 47.7437 23.5288 47.5737C23.2212 47.9165 22.8213 48.0879 22.3291 48.0879C21.8633 48.0879 21.4766 47.9531 21.1689 47.6836C20.8643 47.4141 20.7119 47.0742 20.7119 46.6641C20.7119 46.1602 20.8979 45.7734 21.27 45.5039C21.645 45.2344 22.1855 45.0981 22.8916 45.0952H23.4761V44.8228C23.4761 44.603 23.4189 44.4272 23.3047 44.2954C23.1934 44.1636 23.0161 44.0977 22.7729 44.0977C22.5591 44.0977 22.3906 44.1489 22.2676 44.2515C22.1475 44.354 22.0874 44.4946 22.0874 44.6733H20.8174C20.8174 44.3979 20.9023 44.1431 21.0723 43.9087C21.2422 43.6743 21.4824 43.4912 21.793 43.3594C22.1035 43.2246 22.4521 43.1572 22.8389 43.1572C23.4248 43.1572 23.8892 43.3052 24.2319 43.6011C24.5776 43.894 24.7505 44.3071 24.7505 44.8403V46.9014C24.7534 47.3525 24.8164 47.6938 24.9395 47.9253V48H23.6562ZM22.606 47.1167C22.7935 47.1167 22.9663 47.0757 23.1245 46.9937C23.2827 46.9087 23.3999 46.7959 23.4761 46.6553V45.8379H23.0015C22.3657 45.8379 22.0273 46.0576 21.9863 46.4971L21.9819 46.5718C21.9819 46.73 22.0376 46.8604 22.1489 46.9629C22.2603 47.0654 22.4126 47.1167 22.606 47.1167ZM27.2466 42.0762V43.2451H28.0596V44.1768H27.2466V46.5498C27.2466 46.7256 27.2803 46.8516 27.3477 46.9277C27.415 47.0039 27.5439 47.042 27.7344 47.042C27.875 47.042 27.9995 47.0317 28.1079 47.0112V47.9736C27.8589 48.0498 27.6025 48.0879 27.3389 48.0879C26.4482 48.0879 25.9941 47.6382 25.9766 46.7388V44.1768H25.2822V43.2451H25.9766V42.0762H27.2466ZM28.4375 45.5786C28.4375 45.1069 28.5283 44.6865 28.71 44.3174C28.8916 43.9482 29.1523 43.6626 29.4922 43.4604C29.835 43.2583 30.2319 43.1572 30.6831 43.1572C31.3247 43.1572 31.8477 43.3535 32.252 43.7461C32.6592 44.1387 32.8862 44.6719 32.9331 45.3457L32.9419 45.6709C32.9419 46.4004 32.7383 46.9863 32.3311 47.4287C31.9238 47.8682 31.3774 48.0879 30.6919 48.0879C30.0063 48.0879 29.4585 47.8682 29.0483 47.4287C28.6411 46.9893 28.4375 46.3916 28.4375 45.6357V45.5786ZM29.7075 45.6709C29.7075 46.1221 29.7925 46.4678 29.9624 46.708C30.1323 46.9453 30.3755 47.064 30.6919 47.064C30.9995 47.064 31.2397 46.9468 31.4126 46.7124C31.5854 46.4751 31.6719 46.0972 31.6719 45.5786C31.6719 45.1362 31.5854 44.7935 31.4126 44.5503C31.2397 44.3071 30.9966 44.1855 30.6831 44.1855C30.3726 44.1855 30.1323 44.3071 29.9624 44.5503C29.7925 44.7905 29.7075 45.1641 29.7075 45.6709ZM36.2993 46.686C36.2993 46.5308 36.2217 46.4092 36.0664 46.3213C35.9141 46.2305 35.668 46.1499 35.3281 46.0796C34.1973 45.8423 33.6318 45.3618 33.6318 44.6382C33.6318 44.2163 33.8062 43.8647 34.1548 43.5835C34.5063 43.2993 34.9648 43.1572 35.5303 43.1572C36.1338 43.1572 36.6157 43.2993 36.9761 43.5835C37.3394 43.8677 37.521 44.2368 37.521 44.6909H36.251C36.251 44.5093 36.1924 44.3599 36.0752 44.2427C35.958 44.1226 35.7749 44.0625 35.5259 44.0625C35.312 44.0625 35.1465 44.1108 35.0293 44.2075C34.9121 44.3042 34.8535 44.4272 34.8535 44.5767C34.8535 44.7173 34.9194 44.8315 35.0513 44.9194C35.186 45.0044 35.4116 45.0791 35.728 45.1436C36.0444 45.2051 36.311 45.2754 36.5278 45.3545C37.1987 45.6006 37.5342 46.0269 37.5342 46.6333C37.5342 47.0669 37.3481 47.4185 36.9761 47.688C36.604 47.9546 36.1235 48.0879 35.5347 48.0879C35.1362 48.0879 34.7817 48.0176 34.4712 47.877C34.1636 47.7334 33.9219 47.5386 33.7461 47.2925C33.5703 47.0435 33.4824 46.7754 33.4824 46.4883H34.6865C34.6982 46.7139 34.7817 46.8867 34.937 47.0068C35.0923 47.127 35.3003 47.187 35.561 47.187C35.8042 47.187 35.9873 47.1416 36.1104 47.0508C36.2363 46.957 36.2993 46.8354 36.2993 46.686ZM40.3994 45.5874C40.3994 44.8462 40.5649 44.2559 40.896 43.8164C41.23 43.377 41.6855 43.1572 42.2627 43.1572C42.7256 43.1572 43.1079 43.3301 43.4097 43.6758V41.25H44.6841V48H43.5371L43.4756 47.4946C43.1592 47.8901 42.752 48.0879 42.2539 48.0879C41.6943 48.0879 41.2446 47.8682 40.9048 47.4287C40.5679 46.9863 40.3994 46.3726 40.3994 45.5874ZM41.6694 45.6797C41.6694 46.125 41.7471 46.4663 41.9023 46.7036C42.0576 46.9409 42.2832 47.0596 42.5791 47.0596C42.9717 47.0596 43.2485 46.894 43.4097 46.563V44.6865C43.2515 44.3555 42.9775 44.1899 42.5879 44.1899C41.9756 44.1899 41.6694 44.6865 41.6694 45.6797ZM47.8569 48.0879C47.1597 48.0879 46.5913 47.874 46.1519 47.4463C45.7153 47.0186 45.4971 46.4487 45.4971 45.7368V45.6138C45.4971 45.1362 45.5894 44.71 45.7739 44.335C45.9585 43.957 46.2192 43.667 46.5562 43.4648C46.896 43.2598 47.2827 43.1572 47.7163 43.1572C48.3667 43.1572 48.8779 43.3623 49.25 43.7725C49.625 44.1826 49.8125 44.7642 49.8125 45.5171V46.0356H46.7847C46.8257 46.3462 46.9487 46.5952 47.1538 46.7827C47.3618 46.9702 47.624 47.064 47.9404 47.064C48.4297 47.064 48.812 46.8867 49.0874 46.5322L49.7114 47.231C49.521 47.5005 49.2632 47.7114 48.938 47.8638C48.6128 48.0132 48.2524 48.0879 47.8569 48.0879ZM47.7119 44.1855C47.46 44.1855 47.2549 44.2705 47.0967 44.4404C46.9414 44.6104 46.8418 44.8535 46.7979 45.1699H48.5645V45.0688C48.5586 44.7876 48.4824 44.5708 48.3359 44.4185C48.1895 44.2632 47.9814 44.1855 47.7119 44.1855ZM51.8779 48H50.6035V41.25H51.8779V48ZM14.7441 50.0762V51.2451H15.5571V52.1768H14.7441V54.5498C14.7441 54.7256 14.7778 54.8516 14.8452 54.9277C14.9126 55.0039 15.0415 55.042 15.2319 55.042C15.3726 55.042 15.4971 55.0317 15.6055 55.0112V55.9736C15.3564 56.0498 15.1001 56.0879 14.8364 56.0879C13.9458 56.0879 13.4917 55.6382 13.4741 54.7388V52.1768H12.7798V51.2451H13.4741V50.0762H14.7441ZM18.9365 52.436C18.7637 52.4126 18.6113 52.4009 18.4795 52.4009C17.999 52.4009 17.6841 52.5635 17.5347 52.8887V56H16.2646V51.2451H17.4644L17.4995 51.812C17.7544 51.3755 18.1074 51.1572 18.5586 51.1572C18.6992 51.1572 18.8311 51.1763 18.9541 51.2144L18.9365 52.436ZM22.1753 56C22.1167 55.8857 22.0742 55.7437 22.0479 55.5737C21.7402 55.9165 21.3403 56.0879 20.8481 56.0879C20.3823 56.0879 19.9956 55.9531 19.688 55.6836C19.3833 55.4141 19.231 55.0742 19.231 54.6641C19.231 54.1602 19.417 53.7734 19.7891 53.5039C20.1641 53.2344 20.7046 53.0981 21.4106 53.0952H21.9951V52.8228C21.9951 52.603 21.938 52.4272 21.8237 52.2954C21.7124 52.1636 21.5352 52.0977 21.292 52.0977C21.0781 52.0977 20.9097 52.1489 20.7866 52.2515C20.6665 52.354 20.6064 52.4946 20.6064 52.6733H19.3364C19.3364 52.3979 19.4214 52.1431 19.5913 51.9087C19.7612 51.6743 20.0015 51.4912 20.312 51.3594C20.6226 51.2246 20.9712 51.1572 21.3579 51.1572C21.9438 51.1572 22.4082 51.3052 22.751 51.6011C23.0967 51.894 23.2695 52.3071 23.2695 52.8403V54.9014C23.2725 55.3525 23.3354 55.6938 23.4585 55.9253V56H22.1753ZM21.125 55.1167C21.3125 55.1167 21.4854 55.0757 21.6436 54.9937C21.8018 54.9087 21.9189 54.7959 21.9951 54.6553V53.8379H21.5205C20.8848 53.8379 20.5464 54.0576 20.5054 54.4971L20.501 54.5718C20.501 54.73 20.5566 54.8604 20.668 54.9629C20.7793 55.0654 20.9316 55.1167 21.125 55.1167ZM28.5298 53.6665C28.5298 54.4282 28.3672 55.0229 28.042 55.4507C27.7168 55.8755 27.2627 56.0879 26.6797 56.0879C26.1641 56.0879 25.7524 55.8901 25.4448 55.4946L25.3877 56H24.2451V49.25H25.5151V51.6714C25.8081 51.3286 26.1934 51.1572 26.6709 51.1572C27.251 51.1572 27.7051 51.3711 28.0332 51.7988C28.3643 52.2236 28.5298 52.8228 28.5298 53.5962V53.6665ZM27.2598 53.5742C27.2598 53.0938 27.1836 52.7437 27.0312 52.5239C26.8789 52.3013 26.6519 52.1899 26.3501 52.1899C25.9458 52.1899 25.6675 52.3555 25.5151 52.6865V54.563C25.6704 54.897 25.9517 55.064 26.3589 55.064C26.769 55.064 27.0386 54.8618 27.1675 54.4575C27.229 54.2642 27.2598 53.9697 27.2598 53.5742ZM32.0718 56C32.0132 55.8857 31.9707 55.7437 31.9443 55.5737C31.6367 55.9165 31.2368 56.0879 30.7446 56.0879C30.2788 56.0879 29.8921 55.9531 29.5845 55.6836C29.2798 55.4141 29.1274 55.0742 29.1274 54.6641C29.1274 54.1602 29.3135 53.7734 29.6855 53.5039C30.0605 53.2344 30.6011 53.0981 31.3071 53.0952H31.8916V52.8228C31.8916 52.603 31.8345 52.4272 31.7202 52.2954C31.6089 52.1636 31.4316 52.0977 31.1885 52.0977C30.9746 52.0977 30.8062 52.1489 30.6831 52.2515C30.563 52.354 30.5029 52.4946 30.5029 52.6733H29.2329C29.2329 52.3979 29.3179 52.1431 29.4878 51.9087C29.6577 51.6743 29.8979 51.4912 30.2085 51.3594C30.519 51.2246 30.8677 51.1572 31.2544 51.1572C31.8403 51.1572 32.3047 51.3052 32.6475 51.6011C32.9932 51.894 33.166 52.3071 33.166 52.8403V54.9014C33.1689 55.3525 33.2319 55.6938 33.355 55.9253V56H32.0718ZM31.0215 55.1167C31.209 55.1167 31.3818 55.0757 31.54 54.9937C31.6982 54.9087 31.8154 54.7959 31.8916 54.6553V53.8379H31.417C30.7812 53.8379 30.4429 54.0576 30.4019 54.4971L30.3975 54.5718C30.3975 54.73 30.4531 54.8604 30.5645 54.9629C30.6758 55.0654 30.8281 55.1167 31.0215 55.1167ZM35.4863 51.2451V56.2593C35.4863 56.7837 35.3472 57.1909 35.0688 57.481C34.7905 57.7739 34.3892 57.9204 33.8647 57.9204C33.645 57.9204 33.4355 57.8955 33.2363 57.8457V56.8394C33.3887 56.8657 33.522 56.8789 33.6362 56.8789C34.02 56.8789 34.2119 56.6753 34.2119 56.2681V51.2451H35.4863ZM34.1108 50.0146C34.1108 49.8242 34.1738 49.6675 34.2998 49.5444C34.4287 49.4214 34.603 49.3599 34.8228 49.3599C35.0425 49.3599 35.2153 49.4214 35.3413 49.5444C35.4702 49.6675 35.5347 49.8242 35.5347 50.0146C35.5347 50.208 35.4688 50.3662 35.3369 50.4893C35.208 50.6123 35.0366 50.6738 34.8228 50.6738C34.6089 50.6738 34.436 50.6123 34.3042 50.4893C34.1753 50.3662 34.1108 50.208 34.1108 50.0146ZM39.2349 56C39.1763 55.8857 39.1338 55.7437 39.1074 55.5737C38.7998 55.9165 38.3999 56.0879 37.9077 56.0879C37.4419 56.0879 37.0552 55.9531 36.7476 55.6836C36.4429 55.4141 36.2905 55.0742 36.2905 54.6641C36.2905 54.1602 36.4766 53.7734 36.8486 53.5039C37.2236 53.2344 37.7642 53.0981 38.4702 53.0952H39.0547V52.8228C39.0547 52.603 38.9976 52.4272 38.8833 52.2954C38.772 52.1636 38.5947 52.0977 38.3516 52.0977C38.1377 52.0977 37.9692 52.1489 37.8462 52.2515C37.7261 52.354 37.666 52.4946 37.666 52.6733H36.396C36.396 52.3979 36.481 52.1431 36.6509 51.9087C36.8208 51.6743 37.061 51.4912 37.3716 51.3594C37.6821 51.2246 38.0308 51.1572 38.4175 51.1572C39.0034 51.1572 39.4678 51.3052 39.8105 51.6011C40.1562 51.894 40.3291 52.3071 40.3291 52.8403V54.9014C40.332 55.3525 40.395 55.6938 40.5181 55.9253V56H39.2349ZM38.1846 55.1167C38.3721 55.1167 38.5449 55.0757 38.7031 54.9937C38.8613 54.9087 38.9785 54.7959 39.0547 54.6553V53.8379H38.5801C37.9443 53.8379 37.606 54.0576 37.5649 54.4971L37.5605 54.5718C37.5605 54.73 37.6162 54.8604 37.7275 54.9629C37.8389 55.0654 37.9912 55.1167 38.1846 55.1167ZM41.1069 53.5874C41.1069 52.8462 41.2725 52.2559 41.6035 51.8164C41.9375 51.377 42.3931 51.1572 42.9702 51.1572C43.4331 51.1572 43.8154 51.3301 44.1172 51.6758V49.25H45.3916V56H44.2446L44.1831 55.4946C43.8667 55.8901 43.4595 56.0879 42.9614 56.0879C42.4019 56.0879 41.9521 55.8682 41.6123 55.4287C41.2754 54.9863 41.1069 54.3726 41.1069 53.5874ZM42.377 53.6797C42.377 54.125 42.4546 54.4663 42.6099 54.7036C42.7651 54.9409 42.9907 55.0596 43.2866 55.0596C43.6792 55.0596 43.9561 54.894 44.1172 54.563V52.6865C43.959 52.3555 43.6851 52.1899 43.2954 52.1899C42.6831 52.1899 42.377 52.6865 42.377 53.6797ZM46.1782 53.5786C46.1782 53.1069 46.269 52.6865 46.4507 52.3174C46.6323 51.9482 46.8931 51.6626 47.2329 51.4604C47.5757 51.2583 47.9727 51.1572 48.4238 51.1572C49.0654 51.1572 49.5884 51.3535 49.9927 51.7461C50.3999 52.1387 50.627 52.6719 50.6738 53.3457L50.6826 53.6709C50.6826 54.4004 50.479 54.9863 50.0718 55.4287C49.6646 55.8682 49.1182 56.0879 48.4326 56.0879C47.7471 56.0879 47.1992 55.8682 46.7891 55.4287C46.3818 54.9893 46.1782 54.3916 46.1782 53.6357V53.5786ZM47.4482 53.6709C47.4482 54.1221 47.5332 54.4678 47.7031 54.708C47.873 54.9453 48.1162 55.064 48.4326 55.064C48.7402 55.064 48.9805 54.9468 49.1533 54.7124C49.3262 54.4751 49.4126 54.0972 49.4126 53.5786C49.4126 53.1362 49.3262 52.7935 49.1533 52.5503C48.9805 52.3071 48.7373 52.1855 48.4238 52.1855C48.1133 52.1855 47.873 52.3071 47.7031 52.5503C47.5332 52.7905 47.4482 53.1641 47.4482 53.6709ZM54.1367 52.436C53.9639 52.4126 53.8115 52.4009 53.6797 52.4009C53.1992 52.4009 52.8843 52.5635 52.7349 52.8887V56H51.4648V51.2451H52.6646L52.6997 51.812C52.9546 51.3755 53.3076 51.1572 53.7588 51.1572C53.8994 51.1572 54.0312 51.1763 54.1543 51.2144L54.1367 52.436Z" fill="#36A792"/>
</svg>
