<svg width="67" height="57" viewBox="0 0 67 57" fill="none" xmlns="http://www.w3.org/2000/svg">
<path d="M39.1318 20.188L35.287 24.2908L46.1551 35.8879L50 31.7851L39.1318 20.188Z" fill="#5B7288"/>
<path d="M42.0245 14.2879C45.5227 14.2879 48.3683 11.2514 48.3683 7.51869C48.3683 6.39693 48.0783 5.35254 47.6252 4.42418L42.7314 9.64617L40.0308 6.76441L44.9245 1.54242C44.0545 1.0589 43.0758 0.749452 42.0245 0.749452C38.5264 0.749452 35.6808 3.78594 35.6808 7.51869C35.6808 8.31166 35.8258 9.06595 36.0614 9.76221L32.7083 13.3402L29.482 9.8976L30.7689 8.52441L28.2133 5.79737L32.0558 1.69715C29.9352 -0.565715 26.4914 -0.565715 24.3708 1.69715L17.9546 8.54375L20.5102 11.2708H15.3989L14.1121 12.644L20.5283 19.4906L21.8152 18.1174V12.644L24.3708 15.371L25.6577 13.9978L28.8839 17.4405L15.4533 31.7719L19.2958 35.8722L39.922 13.8818C40.5745 14.1332 41.2814 14.2879 42.0245 14.2879Z" fill="#5B7288"/>
<path d="M11.6636 44.1436H9.03564V46.1123H12.1074V47H7.92383V40.6016H12.0767V41.498H9.03564V43.2646H11.6636V44.1436ZM14.0454 47H12.9775V40.25H14.0454V47ZM17.3062 47.0879C16.6294 47.0879 16.0801 46.8755 15.6582 46.4507C15.2393 46.0229 15.0298 45.4546 15.0298 44.7456V44.6138C15.0298 44.1392 15.1206 43.7158 15.3022 43.3438C15.4868 42.9688 15.7446 42.6772 16.0757 42.4692C16.4067 42.2612 16.7759 42.1572 17.1831 42.1572C17.8306 42.1572 18.3301 42.3638 18.6816 42.7769C19.0361 43.1899 19.2134 43.7744 19.2134 44.5303V44.9609H16.1064C16.1387 45.3535 16.269 45.6641 16.4976 45.8926C16.729 46.1211 17.019 46.2354 17.3677 46.2354C17.8569 46.2354 18.2554 46.0376 18.563 45.6421L19.1387 46.1914C18.9482 46.4756 18.6934 46.6968 18.374 46.855C18.0576 47.0103 17.7017 47.0879 17.3062 47.0879ZM17.1787 43.0142C16.8857 43.0142 16.6484 43.1167 16.4668 43.3218C16.2881 43.5269 16.1738 43.8125 16.124 44.1787H18.1587V44.0996C18.1353 43.7422 18.04 43.4727 17.873 43.291C17.7061 43.1064 17.4746 43.0142 17.1787 43.0142ZM21.0503 42.2451L21.0811 42.7417C21.415 42.3521 21.8721 42.1572 22.4521 42.1572C23.0879 42.1572 23.5229 42.4004 23.7573 42.8867C24.103 42.4004 24.5894 42.1572 25.2163 42.1572C25.7407 42.1572 26.1304 42.3022 26.3853 42.5923C26.6431 42.8823 26.7749 43.3101 26.7808 43.8755V47H25.7129V43.9062C25.7129 43.6045 25.647 43.3833 25.5151 43.2427C25.3833 43.1021 25.165 43.0317 24.8604 43.0317C24.6172 43.0317 24.418 43.0977 24.2627 43.2295C24.1104 43.3584 24.0034 43.5283 23.9419 43.7393L23.9463 47H22.8784V43.8711C22.8638 43.3115 22.5781 43.0317 22.0215 43.0317C21.5938 43.0317 21.2905 43.2061 21.1118 43.5547V47H20.0439V42.2451H21.0503ZM29.9712 47.0879C29.2944 47.0879 28.7451 46.8755 28.3232 46.4507C27.9043 46.0229 27.6948 45.4546 27.6948 44.7456V44.6138C27.6948 44.1392 27.7856 43.7158 27.9673 43.3438C28.1519 42.9688 28.4097 42.6772 28.7407 42.4692C29.0718 42.2612 29.4409 42.1572 29.8481 42.1572C30.4956 42.1572 30.9951 42.3638 31.3467 42.7769C31.7012 43.1899 31.8784 43.7744 31.8784 44.5303V44.9609H28.7715C28.8037 45.3535 28.9341 45.6641 29.1626 45.8926C29.394 46.1211 29.6841 46.2354 30.0327 46.2354C30.522 46.2354 30.9204 46.0376 31.228 45.6421L31.8037 46.1914C31.6133 46.4756 31.3584 46.6968 31.0391 46.855C30.7227 47.0103 30.3667 47.0879 29.9712 47.0879ZM29.8438 43.0142C29.5508 43.0142 29.3135 43.1167 29.1318 43.3218C28.9531 43.5269 28.8389 43.8125 28.7891 44.1787H30.8237V44.0996C30.8003 43.7422 30.7051 43.4727 30.5381 43.291C30.3711 43.1064 30.1396 43.0142 29.8438 43.0142ZM33.7021 42.2451L33.7329 42.7944C34.0845 42.3696 34.5459 42.1572 35.1172 42.1572C36.1074 42.1572 36.6113 42.7241 36.6289 43.8579V47H35.561V43.9194C35.561 43.6177 35.4951 43.395 35.3633 43.2515C35.2344 43.105 35.022 43.0317 34.7261 43.0317C34.2954 43.0317 33.9746 43.2266 33.7637 43.6162V47H32.6958V42.2451H33.7021ZM39.0591 41.0894V42.2451H39.8984V43.0361H39.0591V45.6904C39.0591 45.8721 39.0942 46.0039 39.1646 46.0859C39.2378 46.165 39.3667 46.2046 39.5513 46.2046C39.6743 46.2046 39.7988 46.1899 39.9248 46.1606V46.9868C39.6816 47.0542 39.4473 47.0879 39.2217 47.0879C38.4014 47.0879 37.9912 46.6353 37.9912 45.73V43.0361H37.209V42.2451H37.9912V41.0894H39.0591ZM40.3862 44.5786C40.3862 44.1128 40.4785 43.6938 40.6631 43.3218C40.8477 42.9468 41.1069 42.6597 41.4409 42.4604C41.7749 42.2583 42.1587 42.1572 42.5923 42.1572C43.2339 42.1572 43.7539 42.3638 44.1523 42.7769C44.5537 43.1899 44.7705 43.7378 44.8027 44.4204L44.8071 44.6709C44.8071 45.1396 44.7163 45.5586 44.5347 45.9277C44.356 46.2969 44.0981 46.5825 43.7612 46.7847C43.4272 46.9868 43.0405 47.0879 42.6011 47.0879C41.9302 47.0879 41.3926 46.8652 40.9883 46.4199C40.5869 45.9717 40.3862 45.3755 40.3862 44.6313V44.5786ZM41.4541 44.6709C41.4541 45.1602 41.5552 45.5439 41.7573 45.8223C41.9595 46.0977 42.2407 46.2354 42.6011 46.2354C42.9614 46.2354 43.2412 46.0947 43.4404 45.8135C43.6426 45.5322 43.7437 45.1206 43.7437 44.5786C43.7437 44.0981 43.6396 43.7173 43.4316 43.436C43.2266 43.1548 42.9468 43.0142 42.5923 43.0142C42.2437 43.0142 41.9668 43.1533 41.7617 43.4316C41.5566 43.707 41.4541 44.1201 41.4541 44.6709ZM48.3755 45.708C48.3755 45.5176 48.2964 45.3726 48.1382 45.2729C47.9829 45.1733 47.7236 45.0854 47.3604 45.0093C46.9971 44.9331 46.6938 44.8364 46.4507 44.7192C45.9175 44.4614 45.6509 44.0879 45.6509 43.5986C45.6509 43.1885 45.8237 42.8457 46.1694 42.5703C46.5151 42.2949 46.9546 42.1572 47.4878 42.1572C48.0562 42.1572 48.5146 42.2979 48.8633 42.5791C49.2148 42.8604 49.3906 43.2251 49.3906 43.6733H48.3228C48.3228 43.4683 48.2466 43.2983 48.0942 43.1636C47.9419 43.0259 47.7397 42.957 47.4878 42.957C47.2534 42.957 47.0615 43.0112 46.9121 43.1196C46.7656 43.228 46.6924 43.373 46.6924 43.5547C46.6924 43.7188 46.7612 43.8462 46.8989 43.937C47.0366 44.0278 47.3149 44.1201 47.7339 44.2139C48.1528 44.3047 48.481 44.4146 48.7183 44.5435C48.9585 44.6694 49.1357 44.8218 49.25 45.0005C49.3672 45.1792 49.4258 45.396 49.4258 45.6509C49.4258 46.0786 49.2485 46.4258 48.894 46.6924C48.5396 46.9561 48.0752 47.0879 47.501 47.0879C47.1113 47.0879 46.7642 47.0176 46.4595 46.877C46.1548 46.7363 45.9175 46.543 45.7476 46.2969C45.5776 46.0508 45.4927 45.7856 45.4927 45.5015H46.5298C46.5444 45.7534 46.6396 45.9482 46.8154 46.0859C46.9912 46.2207 47.2241 46.2881 47.5142 46.2881C47.7954 46.2881 48.0093 46.2354 48.1558 46.1299C48.3022 46.0215 48.3755 45.8809 48.3755 45.708ZM52.4009 44.5874C52.4009 43.855 52.5708 43.2676 52.9106 42.8252C53.2505 42.3799 53.7061 42.1572 54.2773 42.1572C54.7812 42.1572 55.1885 42.333 55.499 42.6846V40.25H56.5669V47H55.6001L55.5474 46.5078C55.228 46.8945 54.8018 47.0879 54.2686 47.0879C53.7119 47.0879 53.2607 46.8638 52.915 46.4155C52.5723 45.9673 52.4009 45.3579 52.4009 44.5874ZM53.4688 44.6797C53.4688 45.1631 53.561 45.541 53.7456 45.8135C53.9331 46.083 54.1982 46.2178 54.541 46.2178C54.9775 46.2178 55.2969 46.0229 55.499 45.6333V43.603C55.3027 43.2222 54.9863 43.0317 54.5498 43.0317C54.2041 43.0317 53.9375 43.1694 53.75 43.4448C53.5625 43.7173 53.4688 44.1289 53.4688 44.6797ZM59.7749 47.0879C59.0981 47.0879 58.5488 46.8755 58.127 46.4507C57.708 46.0229 57.4985 45.4546 57.4985 44.7456V44.6138C57.4985 44.1392 57.5894 43.7158 57.771 43.3438C57.9556 42.9688 58.2134 42.6772 58.5444 42.4692C58.8755 42.2612 59.2446 42.1572 59.6519 42.1572C60.2993 42.1572 60.7988 42.3638 61.1504 42.7769C61.5049 43.1899 61.6821 43.7744 61.6821 44.5303V44.9609H58.5752C58.6074 45.3535 58.7378 45.6641 58.9663 45.8926C59.1978 46.1211 59.4878 46.2354 59.8364 46.2354C60.3257 46.2354 60.7241 46.0376 61.0317 45.6421L61.6074 46.1914C61.417 46.4756 61.1621 46.6968 60.8428 46.855C60.5264 47.0103 60.1704 47.0879 59.7749 47.0879ZM59.6475 43.0142C59.3545 43.0142 59.1172 43.1167 58.9355 43.3218C58.7568 43.5269 58.6426 43.8125 58.5928 44.1787H60.6274V44.0996C60.604 43.7422 60.5088 43.4727 60.3418 43.291C60.1748 43.1064 59.9434 43.0142 59.6475 43.0142ZM21.2744 49.0894V50.2451H22.1138V51.0361H21.2744V53.6904C21.2744 53.8721 21.3096 54.0039 21.3799 54.0859C21.4531 54.165 21.582 54.2046 21.7666 54.2046C21.8896 54.2046 22.0142 54.1899 22.1401 54.1606V54.9868C21.897 55.0542 21.6626 55.0879 21.437 55.0879C20.6167 55.0879 20.2065 54.6353 20.2065 53.73V51.0361H19.4243V50.2451H20.2065V49.0894H21.2744ZM25.4229 51.2207C25.2822 51.1973 25.1372 51.1855 24.9878 51.1855C24.4985 51.1855 24.1689 51.373 23.999 51.748V55H22.9312V50.2451H23.9507L23.9771 50.7769C24.2349 50.3638 24.5923 50.1572 25.0493 50.1572C25.2017 50.1572 25.3276 50.1777 25.4272 50.2188L25.4229 51.2207ZM28.8066 55C28.7598 54.9092 28.7188 54.7612 28.6836 54.5562C28.3438 54.9106 27.9277 55.0879 27.4355 55.0879C26.958 55.0879 26.5684 54.9517 26.2666 54.6792C25.9648 54.4067 25.814 54.0698 25.814 53.6685C25.814 53.1616 26.0015 52.7734 26.3765 52.5039C26.7544 52.2314 27.2935 52.0952 27.9937 52.0952H28.6484V51.7832C28.6484 51.5371 28.5796 51.3408 28.4419 51.1943C28.3042 51.0449 28.0947 50.9702 27.8135 50.9702C27.5703 50.9702 27.3711 51.0317 27.2158 51.1548C27.0605 51.2749 26.9829 51.4287 26.9829 51.6162H25.915C25.915 51.3555 26.0015 51.1123 26.1743 50.8867C26.3472 50.6582 26.5815 50.4795 26.8774 50.3506C27.1763 50.2217 27.5088 50.1572 27.875 50.1572C28.4316 50.1572 28.8755 50.2979 29.2065 50.5791C29.5376 50.8574 29.7075 51.25 29.7163 51.7568V53.9014C29.7163 54.3291 29.7764 54.6704 29.8965 54.9253V55H28.8066ZM27.6333 54.231C27.8442 54.231 28.042 54.1797 28.2266 54.0771C28.4141 53.9746 28.5547 53.8369 28.6484 53.6641V52.7676H28.0728C27.6772 52.7676 27.3799 52.8364 27.1807 52.9741C26.9814 53.1118 26.8818 53.3066 26.8818 53.5586C26.8818 53.7637 26.9492 53.9277 27.084 54.0508C27.2217 54.1709 27.4048 54.231 27.6333 54.231ZM35.0073 52.6709C35.0073 53.4092 34.8418 53.9966 34.5107 54.4331C34.1826 54.8696 33.73 55.0879 33.1528 55.0879C32.5962 55.0879 32.1626 54.8872 31.8521 54.4858L31.7993 55H30.8325V48.25H31.9004V50.7021C32.208 50.3389 32.6226 50.1572 33.144 50.1572C33.7241 50.1572 34.1797 50.3726 34.5107 50.8032C34.8418 51.2339 35.0073 51.8359 35.0073 52.6094V52.6709ZM33.9395 52.5786C33.9395 52.063 33.8486 51.6763 33.667 51.4185C33.4854 51.1606 33.2217 51.0317 32.876 51.0317C32.4131 51.0317 32.0879 51.2339 31.9004 51.6382V53.5981C32.0908 54.0112 32.4189 54.2178 32.8848 54.2178C33.2188 54.2178 33.4766 54.0933 33.6582 53.8442C33.8398 53.5952 33.9336 53.2188 33.9395 52.7148V52.5786ZM38.7471 55C38.7002 54.9092 38.6592 54.7612 38.624 54.5562C38.2842 54.9106 37.8682 55.0879 37.376 55.0879C36.8984 55.0879 36.5088 54.9517 36.207 54.6792C35.9053 54.4067 35.7544 54.0698 35.7544 53.6685C35.7544 53.1616 35.9419 52.7734 36.3169 52.5039C36.6948 52.2314 37.2339 52.0952 37.9341 52.0952H38.5889V51.7832C38.5889 51.5371 38.52 51.3408 38.3823 51.1943C38.2446 51.0449 38.0352 50.9702 37.7539 50.9702C37.5107 50.9702 37.3115 51.0317 37.1562 51.1548C37.001 51.2749 36.9233 51.4287 36.9233 51.6162H35.8555C35.8555 51.3555 35.9419 51.1123 36.1147 50.8867C36.2876 50.6582 36.522 50.4795 36.8179 50.3506C37.1167 50.2217 37.4492 50.1572 37.8154 50.1572C38.3721 50.1572 38.8159 50.2979 39.147 50.5791C39.478 50.8574 39.6479 51.25 39.6567 51.7568V53.9014C39.6567 54.3291 39.7168 54.6704 39.8369 54.9253V55H38.7471ZM37.5737 54.231C37.7847 54.231 37.9824 54.1797 38.167 54.0771C38.3545 53.9746 38.4951 53.8369 38.5889 53.6641V52.7676H38.0132C37.6177 52.7676 37.3203 52.8364 37.1211 52.9741C36.9219 53.1118 36.8223 53.3066 36.8223 53.5586C36.8223 53.7637 36.8896 53.9277 37.0244 54.0508C37.1621 54.1709 37.3452 54.231 37.5737 54.231ZM41.8892 50.2451V55.4219C41.8892 55.9082 41.7676 56.2788 41.5244 56.5337C41.2842 56.7915 40.9312 56.9204 40.4653 56.9204C40.269 56.9204 40.0801 56.8955 39.8984 56.8457V56.002C40.0098 56.0283 40.1357 56.0415 40.2764 56.0415C40.6309 56.0415 40.8125 55.8481 40.8213 55.4614V50.2451H41.8892ZM40.729 49.0103C40.729 48.8462 40.7803 48.71 40.8828 48.6016C40.9883 48.4932 41.1377 48.439 41.3311 48.439C41.5244 48.439 41.6738 48.4932 41.7793 48.6016C41.8848 48.71 41.9375 48.8462 41.9375 49.0103C41.9375 49.1714 41.8848 49.3062 41.7793 49.4146C41.6738 49.52 41.5244 49.5728 41.3311 49.5728C41.1377 49.5728 40.9883 49.52 40.8828 49.4146C40.7803 49.3062 40.729 49.1714 40.729 49.0103ZM42.834 52.5786C42.834 52.1128 42.9263 51.6938 43.1108 51.3218C43.2954 50.9468 43.5547 50.6597 43.8887 50.4604C44.2227 50.2583 44.6064 50.1572 45.04 50.1572C45.6816 50.1572 46.2017 50.3638 46.6001 50.7769C47.0015 51.1899 47.2183 51.7378 47.2505 52.4204L47.2549 52.6709C47.2549 53.1396 47.1641 53.5586 46.9824 53.9277C46.8037 54.2969 46.5459 54.5825 46.209 54.7847C45.875 54.9868 45.4883 55.0879 45.0488 55.0879C44.3779 55.0879 43.8403 54.8652 43.436 54.4199C43.0347 53.9717 42.834 53.3755 42.834 52.6313V52.5786ZM43.9019 52.6709C43.9019 53.1602 44.0029 53.5439 44.2051 53.8223C44.4072 54.0977 44.6885 54.2354 45.0488 54.2354C45.4092 54.2354 45.689 54.0947 45.8882 53.8135C46.0903 53.5322 46.1914 53.1206 46.1914 52.5786C46.1914 52.0981 46.0874 51.7173 45.8794 51.436C45.6743 51.1548 45.3945 51.0142 45.04 51.0142C44.6914 51.0142 44.4146 51.1533 44.2095 51.4316C44.0044 51.707 43.9019 52.1201 43.9019 52.6709Z" fill="#7C7C7C"/>
</svg>
